<svg xmlns="http://www.w3.org/2000/svg" viewBox="0 0 173.4 205.09"><defs><style>.cls-1{fill:#fff;}</style></defs><g id="Layer_2" data-name="Layer 2"><g id="Layer_1-2" data-name="Layer 1"><path class="cls-1" d="M1.35,184.73a13.87,13.87,0,0,1,.91-5,12.72,12.72,0,0,1,2.59-4.15,11.92,11.92,0,0,1,4-2.79,12.5,12.5,0,0,1,5.11-1,11.7,11.7,0,0,1,6.22,1.62,10.42,10.42,0,0,1,4,4.4l-3.18,1a7.79,7.79,0,0,0-2.94-3,8.2,8.2,0,0,0-4.2-1.09,8.37,8.37,0,0,0-3.59.78,9.06,9.06,0,0,0-2.9,2.11,9.84,9.84,0,0,0-1.93,3.17,11.44,11.44,0,0,0-.69,4,11.21,11.21,0,0,0,.72,4,10.15,10.15,0,0,0,2,3.27,9.34,9.34,0,0,0,2.92,2.19,8.09,8.09,0,0,0,3.54.8,9,9,0,0,0,4.58-1.29,7.57,7.57,0,0,0,1.74-1.38,4.52,4.52,0,0,0,1-1.65l3.19,1a8.28,8.28,0,0,1-1.55,2.5,10.59,10.59,0,0,1-2.39,2,11.81,11.81,0,0,1-3,1.31,13.17,13.17,0,0,1-3.45.46A12.11,12.11,0,0,1,4.92,194a13.27,13.27,0,0,1-2.63-4.19A13.71,13.71,0,0,1,1.35,184.73Z"/><path class="cls-1" d="M45.44,175.08a10.27,10.27,0,0,0-5.79,1.84,9.26,9.26,0,0,0-3.47,4.8v15.72H32.89V172.17H36v6.06a13.23,13.23,0,0,1,3.43-4.44A7,7,0,0,1,44,172h.82a3.48,3.48,0,0,1,.63,0Z"/><path class="cls-1" d="M62.9,197.93a12.05,12.05,0,0,1-5-1,12.43,12.43,0,0,1-4-2.84,12.88,12.88,0,0,1-2.58-4.18,13.76,13.76,0,0,1-.91-5,13.57,13.57,0,0,1,.94-5,13.16,13.16,0,0,1,2.6-4.17,12.49,12.49,0,0,1,4-2.86,12.17,12.17,0,0,1,10,0,12.49,12.49,0,0,1,4,2.86,13.34,13.34,0,0,1,2.6,4.17,13.57,13.57,0,0,1,.94,5,13.58,13.58,0,0,1-3.54,9.17,12.43,12.43,0,0,1-4,2.84A12,12,0,0,1,62.9,197.93Zm-9.12-13a10.83,10.83,0,0,0,.7,3.95,10.44,10.44,0,0,0,1.93,3.2,8.92,8.92,0,0,0,2.9,2.16,8.35,8.35,0,0,0,7.09,0A9.3,9.3,0,0,0,69.31,192a10.24,10.24,0,0,0,2-3.22,11.16,11.16,0,0,0,0-7.94,10.39,10.39,0,0,0-2-3.25,9.42,9.42,0,0,0-2.89-2.18,8,8,0,0,0-3.52-.8,8.13,8.13,0,0,0-3.55.8,8.89,8.89,0,0,0-2.89,2.21,10.94,10.94,0,0,0-2.68,7.28Z"/><path class="cls-1" d="M103.8,172.16v5a12,12,0,0,0-3.93-3.85,10.14,10.14,0,0,0-5.42-1.53,10.66,10.66,0,0,0-4.71,1.07,12.2,12.2,0,0,0-3.81,2.86,13.24,13.24,0,0,0-2.53,4.17,13.81,13.81,0,0,0-.91,5,15,15,0,0,0,.81,4.92,13.46,13.46,0,0,0,2.32,4.17,11.17,11.17,0,0,0,3.6,2.91,9.73,9.73,0,0,0,4.65,1.1,10.2,10.2,0,0,0,5.33-1.46,13.37,13.37,0,0,0,4.27-4.27v12.89h3.27V172.16Zm-1.86,19.2a9.6,9.6,0,0,1-1.93,1.89,9.43,9.43,0,0,1-2.36,1.28,7.83,7.83,0,0,1-2.77.48,8.14,8.14,0,0,1-3.65-.82A8.76,8.76,0,0,1,88.39,192a10.34,10.34,0,0,1-1.86-3.22,11.47,11.47,0,0,1-.68-3.88,11.22,11.22,0,0,1,.68-3.79,10.46,10.46,0,0,1,1.91-3.27,9.36,9.36,0,0,1,2.94-2.31,8.27,8.27,0,0,1,3.74-.87,7.89,7.89,0,0,1,2.76.53,10.39,10.39,0,0,1,2.57,1.46,9.5,9.5,0,0,1,2,2.11,5.87,5.87,0,0,1,1,2.5V189A17.88,17.88,0,0,1,101.94,191.36Z"/><path class="cls-1" d="M128.16,197.93a12.15,12.15,0,0,1-9.07-3.91,13.45,13.45,0,0,1-2.63-4.19,13.92,13.92,0,0,1-.94-5.1,13.54,13.54,0,0,1,.94-5,12.72,12.72,0,0,1,6.61-6.94,12.23,12.23,0,0,1,14,2.84,13.32,13.32,0,0,1,2.55,4.12,13.47,13.47,0,0,1,.92,5q0,.39,0,.78a2.15,2.15,0,0,1-.07.53H119a10.77,10.77,0,0,0,3,6.75,8.9,8.9,0,0,0,2.85,2,8.56,8.56,0,0,0,3.45.71,9.36,9.36,0,0,0,2.46-.34,10,10,0,0,0,2.22-.93,7.56,7.56,0,0,0,1.81-1.43,6.32,6.32,0,0,0,1.23-1.87l2.84.78a8.24,8.24,0,0,1-1.64,2.55,11.72,11.72,0,0,1-2.46,2,12.23,12.23,0,0,1-3.09,1.31A13.38,13.38,0,0,1,128.16,197.93Zm9.26-14.46a10.22,10.22,0,0,0-3-6.6,8.85,8.85,0,0,0-2.87-1.89,9.22,9.22,0,0,0-7,0,8.85,8.85,0,0,0-2.87,1.89,9.37,9.37,0,0,0-2,2.91,11.16,11.16,0,0,0-.89,3.69Z"/><path class="cls-1" d="M159.85,197.93a12.11,12.11,0,0,1-9.06-3.91,13.09,13.09,0,0,1-2.63-4.19,13.71,13.71,0,0,1-.94-5.1,13.34,13.34,0,0,1,.94-5,12.57,12.57,0,0,1,2.63-4.12,12.8,12.8,0,0,1,4-2.82,12.21,12.21,0,0,1,14,2.84,13.32,13.32,0,0,1,2.55,4.12,13.47,13.47,0,0,1,.92,5c0,.26,0,.52,0,.78a2,2,0,0,1-.08.53H150.69a10.73,10.73,0,0,0,.94,3.76,10.59,10.59,0,0,0,2,3,8.86,8.86,0,0,0,2.84,2,8.56,8.56,0,0,0,3.45.71,9.24,9.24,0,0,0,2.46-.34,10,10,0,0,0,2.22-.93,7.37,7.37,0,0,0,1.81-1.43,6.32,6.32,0,0,0,1.23-1.87l2.84.78a8.24,8.24,0,0,1-1.64,2.55,11.23,11.23,0,0,1-2.46,2,12.32,12.32,0,0,1-3.08,1.31A13.51,13.51,0,0,1,159.85,197.93Zm9.26-14.46a10.09,10.09,0,0,0-.93-3.71,10.28,10.28,0,0,0-2-2.89,8.85,8.85,0,0,0-2.87-1.89,9.22,9.22,0,0,0-6.95,0,8.85,8.85,0,0,0-2.87,1.89,9.37,9.37,0,0,0-2,2.91,11.41,11.41,0,0,0-.89,3.69Z"/><path class="cls-1" d="M50.93,14.25a5.43,5.43,0,0,1,3.51,2.12A7.87,7.87,0,0,1,52.93,28.6a4.72,4.72,0,0,1-2.25.7C26.59,29.63,9.5,38.3,0,54.91v52.84C11,123.31,30.53,130,49.53,126.3c22.9-4.49,36.74-12.22,43.16-44.9C95.55,66.81,94.42,53,96.88,38.25,101.67,9,129.14-3.84,152.19,13.47c15.76,11.78,19.28,24.87,7,40.09-1.81,2.25-3.43,4.6-7,9.52a3.76,3.76,0,0,0,.85,5.27l.36.23c6.89,3.84,13.51,7.43,20,11V0H0V35.38C12.43,22,29.76,14.3,50.93,14.25Z"/><path class="cls-1" d="M133.1,72.49c-4.88-9.72,1.26-13.36,11.26-24.7,5.67-6.46,5.94-15.17,2.09-19A21,21,0,0,0,129.77,22c-5.63.12-14,6.49-16.05,12a109.9,109.9,0,0,0-5.81,33.67C106.42,103.56,94.83,131,58.81,140c-18.67,4.47-43.39-.83-58.81-13.94v22.09H173.36V96.53C164.17,91.48,136.93,80.16,133.1,72.49Z"/></g></g></svg>