<?xml version="1.0" encoding="utf-8"?>
<!-- Generator: Adobe Illustrator 19.0.0, SVG Export Plug-In . SVG Version: 6.00 Build 0)  -->
<svg version="1.1" id="Layer_1" xmlns="http://www.w3.org/2000/svg" xmlns:xlink="http://www.w3.org/1999/xlink" x="0px" y="0px"
	 viewBox="0 0 559.6 97.8" style="enable-background:new 0 0 559.6 97.8;" xml:space="preserve">
<style type="text/css">
	.st0{fill:#FFFFFF;}
	.st1{fill:#ff5200;}
</style>
<path id="XMLID_98_" class="st0" d="M390.8,78.1c3.4,5.4,6.8,10.8,10.3,16.5c-3.3,0-6.3,0-9.5,0c-2.1-3.4-4.2-6.9-6.5-10.4
	c-0.5,0.4-1,0.7-1.5,1.1c-7.3,5.9-15.6,9.5-24.8,10.6c-16.2,1.9-30.4-2.6-42-14.3c-9.5-9.5-13.9-21.3-13.5-34.8
	c0.5-19.2,13.1-38.9,36.2-44.7c19.4-4.8,36.3,0.2,49.9,15.1c8.5,9.4,12.2,20.7,11.7,33.4c-0.4,9.6-3.6,18.2-9.2,26
	C391.5,77.1,391.2,77.5,390.8,78.1z M352,89c21,0.4,41-16.5,41-40.6c0-23.8-19.6-40.5-40.6-40.7c-21.6-0.2-41.2,16.9-41.2,40.7
	C311.3,72.5,331,89.3,352,89z"/>
<path id="XMLID_95_" class="st0" d="M190.3,49.5c0-21.3,14.1-40,34.7-46c19.5-5.7,40.4,0.7,52.7,16.1c7.9,9.9,11.4,21.2,10.4,33.9
	c-1.5,18.6-14.6,36.8-36.2,42.1c-19.3,4.7-36.2-0.3-49.7-15C194.5,72.4,190.3,60.8,190.3,49.5z M239.3,90
	c21.4,0.4,40.9-17,40.9-40.5c0.1-23.3-19.2-40.8-40.9-40.8c-21.9,0-40.9,17.5-40.9,40.8C198.5,73,217.8,90.4,239.3,90z"/>
<path id="XMLID_94_" class="st1" d="M93.2,30.5c-2.6,0-5.3,0-8,0C75,11,53.1,5.3,36.3,10.6C19.4,16,8,31.7,8.1,49.5
	c0,18,11.5,33.4,28.7,38.8c16.5,5.1,38.3-0.5,48.5-20c2.5,0,5,0,7.4,0c0.2,0,0.4,0.1,0.8,0.2c-0.4,0.9-0.7,1.7-1.1,2.5
	C86.3,83.1,76.5,91,63.6,95c-18.9,5.9-39.9-0.1-52.4-15C-10,54.8,0.1,16.1,31.3,4.8c18.9-6.9,36.2-3.4,51.4,9.9
	c4.5,3.9,7.7,8.8,10.2,14.3c0.2,0.4,0.3,0.8,0.4,1.2C93.3,30.2,93.2,30.3,93.2,30.5z"/>
<path id="XMLID_93_" class="st0" d="M117.9,10.6c0-2.4,0-4.7,0-7.1c0.7,0,1.3,0,1.9,0c9.7,0,19.4,0,29.1,0c5.1,0,9.9,1,14.4,3.4
	c8.4,4.4,13.2,11.4,14.1,20.9c0.4,4.8-1.5,9.1-4,13.1c-3.4,5.4-8.4,8.9-14.5,10.9c-0.6,0.2-1.3,0.4-2.2,0.7
	c9,14.4,17.9,28.7,26.9,43.2c-3.3,0-6.3,0-9.5,0c-8.6-13.9-17.3-28.1-26-42.3c-10.1,0-20.1,0-30.2,0c0-2.5,0-4.8,0-7.3
	c0.8,0,1.6,0,2.3,0c9.5,0,19,0,28.5,0c5.5,0,10.3-1.7,14.4-5.4c3.4-3,5.5-6.9,6-11.5c0.1-1,0-2.1-0.2-3.1
	c-1.9-8.1-9.1-14.3-17.5-15.1c-2.1-0.2-4.3-0.3-6.4-0.3c-8.3,0-16.6,0-24.9,0C119.3,10.6,118.6,10.6,117.9,10.6z"/>
<path id="XMLID_92_" class="st0" d="M421.5,2.6c20,0,39.8,0,59.6,0c0,2.4,0,4.7,0,7.2c-19.9,0-39.7,0-59.6,0
	C421.5,7.3,421.5,5,421.5,2.6z"/>
<path id="XMLID_91_" class="st0" d="M500,9.7c0-2.5,0-4.7,0-7.1c19.9,0,39.7,0,59.7,0c0,2.3,0,4.7,0,7.1C539.9,9.7,520,9.7,500,9.7z
	"/>
<path id="XMLID_90_" class="st0" d="M481.1,44.8c0,2.4,0,4.7,0,7c-19.9,0-39.7,0-59.7,0c0-2.4,0-4.6,0-7
	C441.4,44.8,461.2,44.8,481.1,44.8z"/>
<path id="XMLID_89_" class="st0" d="M559.7,51.9c-19.9,0-39.7,0-59.6,0c0-2.4,0-4.7,0-7.1c19.9,0,39.7,0,59.6,0
	C559.7,47.2,559.7,49.4,559.7,51.9z"/>
<path id="XMLID_88_" class="st0" d="M421.5,94.2c0-2.4,0-4.7,0-7c19.9,0,39.6,0,59.6,0c0,2.3,0,4.6,0,7
	C461.3,94.2,441.5,94.2,421.5,94.2z"/>
<path id="XMLID_87_" class="st0" d="M559.7,87.3c0,2.4,0,4.7,0,7c-19.9,0-39.7,0-59.7,0c0-0.4,0-0.6,0-0.9c0-2,0-4,0-6.1
	C519.9,87.3,539.7,87.3,559.7,87.3z"/>
</svg>
