<svg xmlns="http://www.w3.org/2000/svg" viewBox="0 0 87.26 102"><defs><style>.cls-1{fill:#fff;}</style></defs><g id="Layer_2" data-name="Layer 2"><g id="Layer_1-2" data-name="Layer 1"><path class="cls-1" d="M25.87,7a2.68,2.68,0,0,1,1.74,1,3.83,3.83,0,0,1-.75,6,2.4,2.4,0,0,1-1.14.35C13.77,14.54,5.29,18.79.57,27v26C6,60.53,15.74,63.79,25.11,62c11.37-2.18,18.26-6,21.44-22,1.42-7.16.87-14,2.08-21.17C51.07,4.37,64.71-1.88,76.16,6.62,84,12.4,85.73,18.83,79.63,26.3c-.89,1.09-1.69,2.25-3.45,4.67a1.84,1.84,0,0,0,.61,2.7c3.42,1.88,6.7,3.65,9.9,5.42V0H.57V17.36C6.74,10.82,15.35,7,25.87,7Z"/><path class="cls-1" d="M66.67,35.57c-2.42-4.76.64-6.55,5.59-12.12,2.83-3.17,3-7.44,1-9.33A10.46,10.46,0,0,0,65,10.79c-2.8.06-6.94,3.18-8,5.9-1.95,5.13-2.64,10.92-2.88,16.47-.74,17.57-6.51,31.06-24.4,35.46-9.26,2.29-21.54-.37-29.2-6.75V72.71H86.69V47.32C82.11,44.9,68.58,39.34,66.67,35.57Z"/><path class="cls-1" d="M10.18,96.45a8.38,8.38,0,0,1-3.63.77,6.3,6.3,0,0,1-4.77-1.85,7.7,7.7,0,0,1,0-9.86A6.26,6.26,0,0,1,6.5,83.65a9.88,9.88,0,0,1,3.63.68l-.49,1.6a9.65,9.65,0,0,0-3.12-.6A4.23,4.23,0,0,0,3.21,86.7,5.47,5.47,0,0,0,2,90.44a5.34,5.34,0,0,0,1.27,3.63,4.13,4.13,0,0,0,3.29,1.47,9.24,9.24,0,0,0,3.3-.64Z"/><path class="cls-1" d="M25.76,84.31,25,86.17a5.48,5.48,0,0,0-2.16-.56,3.16,3.16,0,0,0-1.64.49,5.4,5.4,0,0,0-1.48,1.4,4.72,4.72,0,0,0-.67,1v8.36H17.15V84H19v2.62q1.52-2.92,3.93-2.93A6.28,6.28,0,0,1,25.76,84.31Z"/><path class="cls-1" d="M36,83.65a5.13,5.13,0,0,1,4.16,1.86,7.43,7.43,0,0,1,1.54,4.9,7.51,7.51,0,0,1-1.54,4.94A5.11,5.11,0,0,1,36,97.22a5.12,5.12,0,0,1-4.16-1.86,7.59,7.59,0,0,1-1.54-5,7.4,7.4,0,0,1,1.55-4.9A5.11,5.11,0,0,1,36,83.65Zm0,11.89a3.14,3.14,0,0,0,2.73-1.49,7.22,7.22,0,0,0,0-7.28,3.33,3.33,0,0,0-5.47,0,6.36,6.36,0,0,0-1,3.69,6.43,6.43,0,0,0,1,3.63A3.11,3.11,0,0,0,36,95.54Z"/><path class="cls-1" d="M56.17,102H54.28V95a4.6,4.6,0,0,1-1.67,1.57,4.51,4.51,0,0,1-2.29.62,3.92,3.92,0,0,1-3.44-1.94,9,9,0,0,1-1.26-5,8.11,8.11,0,0,1,1.31-4.77,4.06,4.06,0,0,1,3.5-1.89,4.54,4.54,0,0,1,3.85,2V84h1.89Zm-1.89-9.07V87.56A3.88,3.88,0,0,0,51,85.33a2.79,2.79,0,0,0-2.48,1.45,6.7,6.7,0,0,0-.91,3.63,6.92,6.92,0,0,0,.86,3.65,2.63,2.63,0,0,0,2.35,1.43,3,3,0,0,0,1.44-.4,4.43,4.43,0,0,0,1.37-1.19A3.07,3.07,0,0,0,54.28,92.93Z"/><path class="cls-1" d="M71.93,90.49H63.24a5.31,5.31,0,0,0,1.25,3.62,3.91,3.91,0,0,0,3.05,1.43,10.68,10.68,0,0,0,3.56-.64l.33,1.55a9.19,9.19,0,0,1-3.91.77A5.92,5.92,0,0,1,63,95.38a7,7,0,0,1-1.73-5,7.37,7.37,0,0,1,1.55-4.91,5,5,0,0,1,4-1.83,4.65,4.65,0,0,1,3.66,1.7,6.67,6.67,0,0,1,1.47,4.53Zm-2.07-1.58a3.67,3.67,0,0,0-.92-2.55,2.7,2.7,0,0,0-2.06-1,3.26,3.26,0,0,0-2.44,1,4,4,0,0,0-1.08,2.59Z"/><path class="cls-1" d="M87.26,90.49H78.57a5.31,5.31,0,0,0,1.25,3.62,3.91,3.91,0,0,0,3.06,1.43,10.73,10.73,0,0,0,3.56-.64l.32,1.55a9.16,9.16,0,0,1-3.91.77,5.92,5.92,0,0,1-4.54-1.84,7,7,0,0,1-1.73-5,7.37,7.37,0,0,1,1.55-4.91,5,5,0,0,1,4-1.83,4.65,4.65,0,0,1,3.66,1.7,6.67,6.67,0,0,1,1.47,4.53ZM85.2,88.91a3.68,3.68,0,0,0-.93-2.55,2.7,2.7,0,0,0-2.06-1,3.26,3.26,0,0,0-2.44,1,4,4,0,0,0-1.07,2.59Z"/></g></g></svg>