<svg xmlns="http://www.w3.org/2000/svg" viewBox="0 0 333.12 66"><defs><style>.cls-1{fill:#fff;}</style></defs><g id="Layer_2" data-name="Layer 2"><g id="Layer_1-2" data-name="Layer 1"><path class="cls-1" d="M22.62,6.35a2.41,2.41,0,0,1,1.56.94,3.51,3.51,0,0,1-.67,5.45,2.11,2.11,0,0,1-1,.31C11.81,13.2,4.22,17.06,0,24.46V48c4.88,6.93,13.56,9.9,22,8.26,10.17-2,16.32-5.44,19.17-20,1.27-6.5.77-12.67,1.86-19.22C45.16,4,57.36-1.71,67.6,6c7,5.25,8.56,11.08,3.11,17.86-.8,1-1.52,2.05-3.09,4.24a1.68,1.68,0,0,0,.54,2.45c3.06,1.71,6,3.31,8.86,4.92V0H0V15.76C5.52,9.82,13.22,6.37,22.62,6.35Z"/><path class="cls-1" d="M59.12,32.29c-2.17-4.33.56-5.95,5-11,2.52-2.88,2.64-6.76.93-8.47a9.29,9.29,0,0,0-7.41-3c-2.5.05-6.21,2.89-7.13,5.36a49.09,49.09,0,0,0-2.58,15c-.66,15.95-5.81,28.19-21.81,32.19C17.83,64.36,6.85,62,0,56.16V66H77V43C72.92,40.75,60.82,35.71,59.12,32.29Z"/><path class="cls-1" d="M135.25,42.61a22.18,22.18,0,0,1-9.32,1.93q-7.68,0-12.25-4.66t-4.56-12.4q0-7.73,4.6-12.39t12.08-4.67a25.49,25.49,0,0,1,9.33,1.72l-1.28,4a24.76,24.76,0,0,0-8-1.53,10.9,10.9,0,0,0-8.5,3.47q-3.12,3.45-3.13,9.38a13.37,13.37,0,0,0,3.24,9.13,10.74,10.74,0,0,0,8.46,3.69,24.72,24.72,0,0,0,8.48-1.59Z"/><path class="cls-1" d="M175.23,12.08l-2,4.67a14.45,14.45,0,0,0-5.56-1.4,8.15,8.15,0,0,0-4.21,1.23,13.74,13.74,0,0,0-3.79,3.53A12.8,12.8,0,0,0,158,22.68v21h-4.83V11.2H158v6.58q3.9-7.35,10.11-7.36A16.3,16.3,0,0,1,175.23,12.08Z"/><path class="cls-1" d="M201.48,10.42a13.25,13.25,0,0,1,10.67,4.68q4,4.68,4,12.32t-4,12.42a14.48,14.48,0,0,1-21.35,0q-3.95-4.69-3.94-12.43t4-12.33A13.26,13.26,0,0,1,201.48,10.42Zm0,29.88a8,8,0,0,0,7-3.74A15.68,15.68,0,0,0,211,27.48a15.72,15.72,0,0,0-2.53-9.23,8.63,8.63,0,0,0-14,0,15.79,15.79,0,0,0-2.5,9.27,15.78,15.78,0,0,0,2.53,9.13A8,8,0,0,0,201.48,40.3Z"/><path class="cls-1" d="M253.32,56.55h-4.87V39a11.54,11.54,0,0,1-4.29,4,12,12,0,0,1-5.88,1.55,10.1,10.1,0,0,1-8.83-4.89q-3.24-4.9-3.24-12.48,0-7.26,3.37-12a10.5,10.5,0,0,1,9-4.74,11.79,11.79,0,0,1,9.89,5V11.2h4.87Zm-4.87-22.8V20.25Q245,14.64,240,14.63a7.21,7.21,0,0,0-6.36,3.65,16.64,16.64,0,0,0-2.34,9.14,17.27,17.27,0,0,0,2.2,9.17,6.76,6.76,0,0,0,6,3.59,7.78,7.78,0,0,0,3.71-1,12.09,12.09,0,0,0,3.53-3A7.64,7.64,0,0,0,248.45,33.75Z"/><path class="cls-1" d="M293.76,27.61h-22.3a13.21,13.21,0,0,0,3.2,9.11,10.09,10.09,0,0,0,7.84,3.58,28.52,28.52,0,0,0,9.14-1.59l.84,3.9a24.3,24.3,0,0,1-10,1.93,15.37,15.37,0,0,1-11.67-4.64q-4.42-4.65-4.42-12.54t4-12.34a13,13,0,0,1,10.28-4.6A12,12,0,0,1,290,14.7q3.76,4.26,3.77,11.38Zm-5.3-4a9.17,9.17,0,0,0-2.37-6.41,7.05,7.05,0,0,0-5.3-2.61,8.49,8.49,0,0,0-6.26,2.5,9.9,9.9,0,0,0-2.76,6.52Z"/><path class="cls-1" d="M333.12,27.61H310.81a13.21,13.21,0,0,0,3.2,9.11,10.11,10.11,0,0,0,7.85,3.58A28.46,28.46,0,0,0,331,38.71l.85,3.9a24.32,24.32,0,0,1-10,1.93,15.35,15.35,0,0,1-11.66-4.64q-4.42-4.65-4.43-12.54t4-12.34A13,13,0,0,1,320,10.42a12,12,0,0,1,9.39,4.28q3.78,4.26,3.78,11.38Zm-5.31-4a9.17,9.17,0,0,0-2.37-6.41,7.05,7.05,0,0,0-5.3-2.61,8.45,8.45,0,0,0-6.25,2.5,9.81,9.81,0,0,0-2.76,6.52Z"/></g></g></svg>