<svg xmlns="http://www.w3.org/2000/svg" viewBox="0 0 173.75 205.24"><defs><style>.cls-1{fill:#fff;}</style></defs><g id="Layer_2" data-name="Layer 2"><g id="Layer_1-2" data-name="Layer 1"><path class="cls-1" d="M1.35,184.7a14.18,14.18,0,0,1,.92-5.09,12.74,12.74,0,0,1,2.61-4.18,12.08,12.08,0,0,1,4-2.82,12.78,12.78,0,0,1,5.16-1,11.83,11.83,0,0,1,6.28,1.64,10.5,10.5,0,0,1,4,4.43l-3.21,1a7.67,7.67,0,0,0-3-3.06,8.29,8.29,0,0,0-4.23-1.1,8.47,8.47,0,0,0-3.62.78,9.09,9.09,0,0,0-2.92,2.13,9.8,9.8,0,0,0-1.95,3.21,11.81,11.81,0,0,0,0,8.12,10.57,10.57,0,0,0,2,3.31,9.45,9.45,0,0,0,2.94,2.2,8.16,8.16,0,0,0,3.58.81,8.67,8.67,0,0,0,2.41-.35,9.28,9.28,0,0,0,2.21-.95,7.69,7.69,0,0,0,1.75-1.4,4.54,4.54,0,0,0,1-1.66l3.21,1a8.53,8.53,0,0,1-1.56,2.52,10.78,10.78,0,0,1-2.41,2,11.7,11.7,0,0,1-3.06,1.32,13,13,0,0,1-3.48.46A12.26,12.26,0,0,1,5,194.07a13.22,13.22,0,0,1-2.65-4.23A13.69,13.69,0,0,1,1.35,184.7Z"/><path class="cls-1" d="M45.82,175A10.48,10.48,0,0,0,40,176.82a9.38,9.38,0,0,0-3.5,4.84v15.86H33.17V172h3.12v6.12a13.31,13.31,0,0,1,3.45-4.48,7.08,7.08,0,0,1,4.62-1.78h.83a2.76,2.76,0,0,1,.63.05Z"/><path class="cls-1" d="M63.44,198a12.17,12.17,0,0,1-5.09-1,12.46,12.46,0,0,1-4-2.86,13.06,13.06,0,0,1-2.6-4.21,14.26,14.26,0,0,1,0-10.13,13.38,13.38,0,0,1,2.63-4.21,12.7,12.7,0,0,1,4-2.89,12.28,12.28,0,0,1,10.07,0,12.63,12.63,0,0,1,4,2.89,13.36,13.36,0,0,1,2.62,4.21,13.79,13.79,0,0,1-2.62,14.34,12.39,12.39,0,0,1-4,2.86A12,12,0,0,1,63.44,198Zm-9.2-13.11a11,11,0,0,0,.71,4,10.49,10.49,0,0,0,1.94,3.23,8.91,8.91,0,0,0,2.92,2.18,8.43,8.43,0,0,0,3.58.79,8.16,8.16,0,0,0,3.58-.81,9.45,9.45,0,0,0,2.94-2.2,10.67,10.67,0,0,0,2-3.26,11.32,11.32,0,0,0,0-8,10.54,10.54,0,0,0-2-3.28,9.61,9.61,0,0,0-2.92-2.2,8,8,0,0,0-3.55-.81,8.13,8.13,0,0,0-3.58.81,9.17,9.17,0,0,0-2.92,2.22,11.17,11.17,0,0,0-2.7,7.35Z"/><path class="cls-1" d="M104.7,172v5a12,12,0,0,0-4-3.89,10.18,10.18,0,0,0-5.46-1.54,10.75,10.75,0,0,0-4.76,1.08,12.26,12.26,0,0,0-3.84,2.89,13.43,13.43,0,0,0-2.55,4.2,13.9,13.9,0,0,0-.92,5,15.24,15.24,0,0,0,.82,5A13.4,13.4,0,0,0,86.36,194,11.37,11.37,0,0,0,90,196.91a9.92,9.92,0,0,0,4.69,1.1,10.29,10.29,0,0,0,5.38-1.47,13.46,13.46,0,0,0,4.3-4.3v13h3.31V172Zm-1.87,19.36a9.54,9.54,0,0,1-2,1.91,9.44,9.44,0,0,1-2.38,1.29,7.78,7.78,0,0,1-2.8.49,8.15,8.15,0,0,1-3.68-.83A8.93,8.93,0,0,1,89.15,192a10.32,10.32,0,0,1-1.87-3.25,11.41,11.41,0,0,1-.69-3.91,11.12,11.12,0,0,1,.69-3.82,10.52,10.52,0,0,1,1.92-3.3,9.66,9.66,0,0,1,3-2.33,8.27,8.27,0,0,1,3.77-.88,8,8,0,0,1,2.78.54,10.4,10.4,0,0,1,2.6,1.46,9.73,9.73,0,0,1,2,2.14,5.78,5.78,0,0,1,1,2.52v7.87A17.33,17.33,0,0,1,102.83,191.38Z"/><path class="cls-1" d="M129.28,198a12.22,12.22,0,0,1-9.15-3.94,13.42,13.42,0,0,1-2.66-4.23,13.89,13.89,0,0,1-.94-5.14,13.63,13.63,0,0,1,.94-5.07,13.1,13.1,0,0,1,2.66-4.16,12.73,12.73,0,0,1,4-2.83,12.34,12.34,0,0,1,14.14,2.86,13.45,13.45,0,0,1,3.5,9.15c0,.26,0,.52,0,.78a2.12,2.12,0,0,1-.08.54H120a10.79,10.79,0,0,0,1,3.8,10.46,10.46,0,0,0,2,3,9.19,9.19,0,0,0,2.87,2,8.7,8.7,0,0,0,3.48.71,9,9,0,0,0,2.48-.35,9.11,9.11,0,0,0,2.24-.93,8,8,0,0,0,1.83-1.44,6.53,6.53,0,0,0,1.24-1.88l2.87.78a8.39,8.39,0,0,1-1.66,2.57,11.67,11.67,0,0,1-2.48,2,12.19,12.19,0,0,1-3.11,1.32A13.29,13.29,0,0,1,129.28,198Zm9.34-14.58a10.57,10.57,0,0,0-1-3.75,10.38,10.38,0,0,0-2-2.91,9,9,0,0,0-2.89-1.91,9.37,9.37,0,0,0-7,0,9,9,0,0,0-2.89,1.91,9.39,9.39,0,0,0-2,2.94,11.28,11.28,0,0,0-.9,3.72Z"/><path class="cls-1" d="M161.25,198a12.26,12.26,0,0,1-9.15-3.94,13.42,13.42,0,0,1-2.66-4.23,13.89,13.89,0,0,1-.94-5.14,13.63,13.63,0,0,1,.94-5.07,13.1,13.1,0,0,1,2.66-4.16,12.73,12.73,0,0,1,4-2.83,12.34,12.34,0,0,1,14.14,2.86,13.45,13.45,0,0,1,3.5,9.15c0,.26,0,.52,0,.78a2.12,2.12,0,0,1-.08.54H152a10.79,10.79,0,0,0,.95,3.8,10.46,10.46,0,0,0,2,3,9.19,9.19,0,0,0,2.87,2,8.7,8.7,0,0,0,3.48.71,9.76,9.76,0,0,0,4.72-1.28,8,8,0,0,0,1.83-1.44,6.53,6.53,0,0,0,1.24-1.88l2.87.78a8.39,8.39,0,0,1-1.66,2.57,11.67,11.67,0,0,1-2.48,2,12.19,12.19,0,0,1-3.11,1.32A13.29,13.29,0,0,1,161.25,198Zm9.34-14.58a10.57,10.57,0,0,0-1-3.75,10.38,10.38,0,0,0-2-2.91,9,9,0,0,0-2.89-1.91,9.37,9.37,0,0,0-7,0,9,9,0,0,0-2.89,1.91,9.39,9.39,0,0,0-2,2.94,11.28,11.28,0,0,0-.9,3.72Z"/><path class="cls-1" d="M50.93,14.25a5.43,5.43,0,0,1,3.51,2.12A7.87,7.87,0,0,1,52.93,28.6a4.72,4.72,0,0,1-2.25.7C26.59,29.63,9.5,38.3,0,54.91v52.84C11,123.31,30.53,130,49.53,126.3c22.9-4.49,36.74-12.22,43.16-44.9C95.55,66.81,94.42,53,96.88,38.25,101.67,9,129.14-3.84,152.19,13.47c15.76,11.78,19.28,24.87,7,40.09-1.81,2.25-3.43,4.6-7,9.52a3.76,3.76,0,0,0,.85,5.27l.36.23c6.89,3.84,13.51,7.43,20,11V0H0V35.38C12.43,22,29.76,14.3,50.93,14.25Z"/><path class="cls-1" d="M133.1,72.49c-4.88-9.72,1.26-13.36,11.26-24.7,5.67-6.46,5.94-15.17,2.09-19A21,21,0,0,0,129.77,22c-5.63.12-14,6.49-16.05,12a109.9,109.9,0,0,0-5.81,33.67C106.42,103.56,94.83,131,58.81,140c-18.67,4.47-43.39-.83-58.81-13.94v22.09H173.36V96.53C164.17,91.48,136.93,80.16,133.1,72.49Z"/></g></g></svg>